<svg xmlns="http://www.w3.org/2000/svg" xmlns:xlink="http://www.w3.org/1999/xlink" width="1000" zoomAndPan="magnify" viewBox="0 0 750 479.999983" height="640" preserveAspectRatio="xMidYMid meet" version="1.0"><defs><g/><clipPath id="b9733012c5"><path d="M 0 29.90625 L 720.207031 29.90625 L 720.207031 480 L 0 480 Z M 0 29.90625 " clip-rule="nonzero"/></clipPath><clipPath id="34599abbcb"><path d="M 0 29.871094 L 135.039062 29.871094 L 135.039062 164.910156 L 0 164.910156 Z M 0 29.871094 " clip-rule="nonzero"/></clipPath><clipPath id="1eec282901"><path d="M 585.167969 29.871094 L 720.207031 29.871094 L 720.207031 164.910156 L 585.167969 164.910156 Z M 585.167969 29.871094 " clip-rule="nonzero"/></clipPath><clipPath id="d7209785b0"><path d="M 0 344.960938 L 135.039062 344.960938 L 135.039062 480 L 0 480 Z M 0 344.960938 " clip-rule="nonzero"/></clipPath><clipPath id="109c9e136f"><path d="M 585.167969 344.960938 L 720.207031 344.960938 L 720.207031 480 L 585.167969 480 Z M 585.167969 344.960938 " clip-rule="nonzero"/></clipPath></defs><g clip-path="url(#b9733012c5)"><path fill="#1976d2" d="M 0 29.90625 L 720.855469 29.90625 L 720.855469 480 L 0 480 Z M 0 29.90625 " fill-opacity="1" fill-rule="nonzero"/></g><g clip-path="url(#34599abbcb)"><path fill="#d9d9d9" d="M 0 29.871094 L 135.039062 29.871094 L 135.039062 164.910156 L 0 164.910156 Z M 0 29.871094 " fill-opacity="1" fill-rule="nonzero"/></g><g clip-path="url(#1eec282901)"><path fill="#d9d9d9" d="M 585.167969 29.871094 L 720.207031 29.871094 L 720.207031 164.910156 L 585.167969 164.910156 Z M 585.167969 29.871094 " fill-opacity="1" fill-rule="nonzero"/></g><g clip-path="url(#d7209785b0)"><path fill="#d9d9d9" d="M 0 344.960938 L 135.039062 344.960938 L 135.039062 480 L 0 480 Z M 0 344.960938 " fill-opacity="1" fill-rule="nonzero"/></g><g clip-path="url(#109c9e136f)"><path fill="#d9d9d9" d="M 585.167969 344.960938 L 720.207031 344.960938 L 720.207031 480 L 585.167969 480 Z M 585.167969 344.960938 " fill-opacity="1" fill-rule="nonzero"/></g><path stroke-linecap="butt" transform="matrix(0.749785, 0.000000000000000142, -0.000000000000000142, 0.749785, 135.038688, 163.409709)" fill="none" stroke-linejoin="miter" d="M 0.000498847 2.00117 L 600.172434 2.00117 " stroke="#0a2472" stroke-width="4" stroke-opacity="1" stroke-miterlimit="4"/><path stroke-linecap="butt" transform="matrix(0.749785, 0, 0, 0.749785, 135.038688, 343.461274)" fill="none" stroke-linejoin="miter" d="M 0.000498847 2.000125 L 600.172434 2.000125 " stroke="#0a2472" stroke-width="4" stroke-opacity="1" stroke-miterlimit="4"/><path stroke-linecap="butt" transform="matrix(0, 0.749805, -0.749805, 0, 136.536332, 164.912054)" fill="none" stroke-linejoin="miter" d="M -0.00253058 2.002088 L 240.0704 2.002088 " stroke="#0a2472" stroke-width="4" stroke-opacity="1" stroke-miterlimit="4"/><path stroke-linecap="butt" transform="matrix(0, 0.749805, -0.749805, 0, 586.665256, 164.912054)" fill="none" stroke-linejoin="miter" d="M -0.00253058 2.002113 L 240.0704 2.002113 " stroke="#0a2472" stroke-width="4" stroke-opacity="1" stroke-miterlimit="4"/><path stroke-linecap="butt" transform="matrix(0.743964, 0, 0, 0.743964, 115.378804, 97.390795)" fill="none" stroke-linejoin="miter" d="M 0.000136919 2.000246 L 52.427268 2.000246 " stroke="#0a2472" stroke-width="4" stroke-opacity="1" stroke-miterlimit="4"/><path stroke-linecap="butt" transform="matrix(0.743964, 0, 0, 0.743964, 565.50777, 87.25374)" fill="none" stroke-linejoin="miter" d="M 0.0000575431 2.000697 L 52.427188 2.000697 " stroke="#0a2472" stroke-width="4" stroke-opacity="1" stroke-miterlimit="4"/><path stroke-linecap="butt" transform="matrix(0.743964, 0, 0, 0.743964, 115.378804, 409.480192)" fill="none" stroke-linejoin="miter" d="M 0.000136919 2.000846 L 52.427268 2.000846 " stroke="#0a2472" stroke-width="4" stroke-opacity="1" stroke-miterlimit="4"/><path stroke-linecap="butt" transform="matrix(0.743964, 0, 0, 0.743964, 565.50777, 407.979785)" fill="none" stroke-linejoin="miter" d="M 0.0000575431 2.001394 L 52.427188 2.001394 " stroke="#0a2472" stroke-width="4" stroke-opacity="1" stroke-miterlimit="4"/><path stroke-linecap="butt" transform="matrix(0, -0.743964, 0.743964, 0, 652.685699, 184.567911)" fill="none" stroke-linejoin="miter" d="M 0.00202204 1.997645 L 52.423902 1.997645 " stroke="#0a2472" stroke-width="4" stroke-opacity="1" stroke-miterlimit="4"/><path stroke-linecap="butt" transform="matrix(0, -0.743964, 0.743964, 0, 654.186107, 364.619473)" fill="none" stroke-linejoin="miter" d="M -0.00217894 2.002347 L 52.424952 2.002347 " stroke="#0a2472" stroke-width="4" stroke-opacity="1" stroke-miterlimit="4"/><path stroke-linecap="butt" transform="matrix(0, -0.743964, 0.743964, 0, 62.321478, 364.619473)" fill="none" stroke-linejoin="miter" d="M -0.00217894 1.998908 L 52.424952 1.998908 " stroke="#0a2472" stroke-width="4" stroke-opacity="1" stroke-miterlimit="4"/><path stroke-linecap="butt" transform="matrix(0, -0.743964, 0.743964, 0, 64.517228, 184.567911)" fill="none" stroke-linejoin="miter" d="M 0.00202204 1.998319 L 52.423902 1.998319 " stroke="#0a2472" stroke-width="4" stroke-opacity="1" stroke-miterlimit="4"/><g fill="#000000" fill-opacity="1"><g transform="translate(343.223483, 19.956402)"><g><path d="M 6.480469 -7.097656 C 6.480469 -6.832031 6.457031 -6.59375 6.410156 -6.386719 C 6.363281 -6.175781 6.28125 -5.960938 6.160156 -5.746094 C 6.042969 -5.53125 5.882812 -5.304688 5.6875 -5.0625 C 5.492188 -4.824219 5.246094 -4.550781 4.945312 -4.242188 L 1.605469 -0.859375 L 5.652344 -0.859375 L 5.652344 -2.738281 L 6.507812 -2.738281 L 6.507812 0 L 0.285156 0 L 0.285156 -0.886719 L 4.015625 -4.675781 C 4.207031 -4.867188 4.386719 -5.054688 4.5625 -5.246094 C 4.734375 -5.4375 4.890625 -5.632812 5.027344 -5.828125 C 5.164062 -6.023438 5.273438 -6.226562 5.351562 -6.4375 C 5.429688 -6.648438 5.46875 -6.867188 5.46875 -7.097656 C 5.46875 -7.683594 5.273438 -8.128906 4.882812 -8.429688 C 4.496094 -8.730469 4.015625 -8.878906 3.441406 -8.878906 C 2.640625 -8.878906 2.03125 -8.65625 1.621094 -8.210938 C 1.210938 -7.765625 1.003906 -7.125 1.003906 -6.28125 L 0.0742188 -6.28125 C 0.0742188 -7.363281 0.363281 -8.210938 0.9375 -8.820312 C 1.515625 -9.433594 2.351562 -9.738281 3.441406 -9.738281 C 3.851562 -9.738281 4.242188 -9.679688 4.605469 -9.558594 C 4.96875 -9.4375 5.292969 -9.265625 5.574219 -9.042969 C 5.855469 -8.816406 6.078125 -8.542969 6.238281 -8.214844 C 6.398438 -7.890625 6.480469 -7.515625 6.480469 -7.097656 Z M 6.480469 -7.097656 "/></g></g></g><g fill="#000000" fill-opacity="1"><g transform="translate(351.424753, 19.956402)"><g><path d="M 6.839844 0 L 2.738281 0 L 2.738281 -0.859375 L 4.285156 -0.859375 L 4.285156 -2.738281 L 0 -2.738281 L 0 -3.609375 L 4.015625 -9.578125 L 5.292969 -9.578125 L 5.292969 -3.609375 L 6.839844 -3.609375 L 6.839844 -2.738281 L 5.292969 -2.738281 L 5.292969 -0.859375 L 6.839844 -0.859375 Z M 4.285156 -3.609375 L 4.285156 -8.386719 L 1.0625 -3.609375 Z M 4.285156 -3.609375 "/></g></g></g><g fill="#000000" fill-opacity="1"><g transform="translate(726.177149, 259.452196)"><g><path d="M 5.46875 0 L 1.363281 0 L 1.363281 -0.859375 L 2.914062 -0.859375 L 2.914062 -7.398438 C 2.824219 -7.195312 2.6875 -6.984375 2.496094 -6.753906 C 2.304688 -6.527344 2.078125 -6.320312 1.820312 -6.132812 C 1.5625 -5.941406 1.277344 -5.785156 0.964844 -5.660156 C 0.65625 -5.53125 0.332031 -5.46875 0 -5.46875 L 0 -6.507812 C 0.296875 -6.507812 0.617188 -6.601562 0.960938 -6.789062 C 1.304688 -6.972656 1.621094 -7.210938 1.90625 -7.5 C 2.195312 -7.789062 2.4375 -8.117188 2.628906 -8.484375 C 2.816406 -8.851562 2.914062 -9.214844 2.914062 -9.578125 L 3.925781 -9.578125 L 3.925781 -0.859375 L 5.46875 -0.859375 Z M 5.46875 0 "/></g></g></g><g fill="#000000" fill-opacity="1"><g transform="translate(734.37842, 259.452196)"><g><path d="M 6.882812 -3.214844 C 6.882812 -2.746094 6.796875 -2.304688 6.621094 -1.894531 C 6.445312 -1.484375 6.203125 -1.125 5.898438 -0.816406 C 5.589844 -0.511719 5.222656 -0.273438 4.792969 -0.09375 C 4.363281 0.0820312 3.890625 0.167969 3.382812 0.167969 C 2.921875 0.167969 2.496094 0.101562 2.105469 -0.0351562 C 1.714844 -0.171875 1.371094 -0.371094 1.074219 -0.625 C 0.777344 -0.878906 0.539062 -1.191406 0.359375 -1.5625 C 0.179688 -1.933594 0.0703125 -2.359375 0.03125 -2.839844 L 1.003906 -2.996094 C 1.035156 -2.660156 1.113281 -2.351562 1.242188 -2.066406 C 1.367188 -1.78125 1.535156 -1.535156 1.738281 -1.335938 C 1.945312 -1.136719 2.1875 -0.976562 2.464844 -0.863281 C 2.746094 -0.746094 3.050781 -0.691406 3.382812 -0.691406 C 3.773438 -0.691406 4.125 -0.753906 4.429688 -0.882812 C 4.734375 -1.015625 4.996094 -1.195312 5.210938 -1.425781 C 5.425781 -1.660156 5.589844 -1.929688 5.707031 -2.234375 C 5.820312 -2.539062 5.878906 -2.867188 5.878906 -3.214844 C 5.878906 -3.578125 5.820312 -3.914062 5.707031 -4.222656 C 5.589844 -4.535156 5.429688 -4.800781 5.21875 -5.027344 C 5.007812 -5.253906 4.75 -5.429688 4.445312 -5.558594 C 4.136719 -5.6875 3.800781 -5.753906 3.425781 -5.753906 C 3.035156 -5.753906 2.660156 -5.671875 2.300781 -5.507812 C 1.941406 -5.34375 1.628906 -5.105469 1.363281 -4.792969 L 0.359375 -4.792969 L 0.359375 -9.578125 L 6.355469 -9.578125 L 6.355469 -8.71875 L 1.363281 -8.71875 L 1.363281 -5.722656 C 1.660156 -6.007812 1.992188 -6.226562 2.367188 -6.382812 C 2.742188 -6.535156 3.125 -6.613281 3.515625 -6.613281 C 4.007812 -6.613281 4.460938 -6.53125 4.871094 -6.375 C 5.285156 -6.214844 5.640625 -5.988281 5.9375 -5.699219 C 6.234375 -5.40625 6.46875 -5.050781 6.632812 -4.628906 C 6.800781 -4.210938 6.882812 -3.738281 6.882812 -3.214844 Z M 6.882812 -3.214844 "/></g></g></g><g fill="#ffffff" fill-opacity="1"><g transform="translate(556.763814, 117.803737)"><g><path d="M 14.902344 0 L 8.890625 0 L 8.890625 -1.890625 L 10.171875 -1.890625 L 7.296875 -6.109375 L 4.453125 -1.890625 L 5.625 -1.890625 L 5.625 0 L -0.3125 0 L -0.3125 -1.890625 L 1.953125 -1.890625 L 5.953125 -7.390625 L 2.109375 -12.636719 L 0 -12.636719 L 0 -14.558594 L 5.984375 -14.558594 L 5.984375 -12.636719 L 4.640625 -12.636719 L 7.296875 -8.671875 L 9.984375 -12.636719 L 8.515625 -12.636719 L 8.515625 -14.558594 L 14.558594 -14.558594 L 14.558594 -12.636719 L 12.511719 -12.636719 L 8.671875 -7.390625 L 12.667969 -1.890625 L 14.902344 -1.890625 Z M 14.902344 0 "/></g></g></g></svg>